<svg id="Camada_1" data-name="Camada 1" xmlns="http://www.w3.org/2000/svg" xmlns:xlink="http://www.w3.org/1999/xlink" viewBox="0 0 30.42 30.42"><defs><style>.cls-1{fill:url(#Nueva_muestra_de_degradado_23);}.cls-2{fill:#fff;}</style><linearGradient id="Nueva_muestra_de_degradado_23" x1="3.44" y1="27.82" x2="27.54" y2="5.13" gradientTransform="translate(7.34 -4.91) rotate(22.5)" gradientUnits="userSpaceOnUse"><stop offset="0" stop-color="#f5ec53"/><stop offset="0.24" stop-color="#e48244"/><stop offset="0.4" stop-color="#d15767"/><stop offset="0.49" stop-color="#c84278"/><stop offset="1" stop-color="#192cfa"/></linearGradient></defs><circle class="cls-1" cx="16" cy="16" r="15.21" transform="translate(-5.69 6.55) rotate(-22.5)"/><path class="cls-2" d="M16,9.16c2.23,0,2.49,0,3.37.05a4.59,4.59,0,0,1,1.55.29,2.72,2.72,0,0,1,1.58,1.58,4.59,4.59,0,0,1,.29,1.55c0,.88.05,1.14.05,3.37s0,2.49-.05,3.37a4.59,4.59,0,0,1-.29,1.55,2.72,2.72,0,0,1-1.58,1.58,4.59,4.59,0,0,1-1.55.29c-.88,0-1.14.05-3.37.05s-2.49,0-3.37-.05a4.59,4.59,0,0,1-1.55-.29A2.72,2.72,0,0,1,9.5,20.92a4.59,4.59,0,0,1-.29-1.55c0-.88-.05-1.14-.05-3.37s0-2.49.05-3.37a4.59,4.59,0,0,1,.29-1.55A2.72,2.72,0,0,1,11.08,9.5a4.59,4.59,0,0,1,1.55-.29c.88,0,1.14-.05,3.37-.05m0-1.5c-2.26,0-2.55,0-3.44,0a6,6,0,0,0-2,.39A4.23,4.23,0,0,0,8.1,10.54a6,6,0,0,0-.39,2c0,.89,0,1.18,0,3.44s0,2.55,0,3.44a6,6,0,0,0,.39,2,4.23,4.23,0,0,0,2.44,2.44,6,6,0,0,0,2,.39c.89,0,1.18.05,3.44.05s2.55,0,3.44-.05a6,6,0,0,0,2-.39,4.23,4.23,0,0,0,2.44-2.44,6,6,0,0,0,.39-2c0-.89.05-1.17.05-3.44s0-2.55-.05-3.44a6,6,0,0,0-.39-2A4.23,4.23,0,0,0,21.46,8.1a6,6,0,0,0-2-.39c-.89,0-1.18,0-3.44,0" transform="translate(-0.79 -0.79)"/><path class="cls-2" d="M16,11.72A4.28,4.28,0,1,0,20.28,16,4.27,4.27,0,0,0,16,11.72m0,7.06A2.78,2.78,0,1,1,18.78,16,2.77,2.77,0,0,1,16,18.78" transform="translate(-0.79 -0.79)"/><path class="cls-2" d="M21.45,11.55a1,1,0,1,1-1-1,1,1,0,0,1,1,1" transform="translate(-0.79 -0.79)"/></svg>