<svg id="Camada_1" data-name="Camada 1" xmlns="http://www.w3.org/2000/svg" xmlns:xlink="http://www.w3.org/1999/xlink" viewBox="0 0 30.42 30.42"><defs><style>.cls-1{fill:url(#Gradiente_sem_nome_2);}.cls-2{fill:#fff;}</style><linearGradient id="Gradiente_sem_nome_2" x1="4.45" y1="25.97" x2="25.97" y2="4.45" gradientUnits="userSpaceOnUse"><stop offset="0" stop-color="#117bb8"/><stop offset="1" stop-color="#1157b8"/></linearGradient></defs><rect class="cls-1" width="30.42" height="30.42" rx="15.21"/><rect class="cls-2" x="8.31" y="11.82" width="3.15" height="10.17"/><path class="cls-2" d="M10.66,11.28A1.88,1.88,0,1,0,8.8,9.4,1.87,1.87,0,0,0,10.66,11.28Z" transform="translate(-0.79 -0.79)"/><path class="cls-2" d="M17.28,17.44c0-1.43.66-2.28,1.92-2.28s1.71.82,1.71,2.28v5.34h3.14V16.34c0-2.72-1.55-4-3.7-4A3.55,3.55,0,0,0,17.28,14V12.61h-3V22.78h3Z" transform="translate(-0.79 -0.79)"/></svg>