<svg id="Camada_1" data-name="Camada 1" xmlns="http://www.w3.org/2000/svg" xmlns:xlink="http://www.w3.org/1999/xlink" viewBox="0 0 30.42 30.42"><defs><style>.cls-1{fill:url(#Degradado_sin_nombre_8);}.cls-2{fill:#fff;fill-rule:evenodd;}</style><linearGradient id="Degradado_sin_nombre_8" x1="4.45" y1="25.97" x2="25.97" y2="4.45" gradientUnits="userSpaceOnUse"><stop offset="0" stop-color="#57f676"/><stop offset="1" stop-color="#57a976"/></linearGradient></defs><rect class="cls-1" width="30.42" height="30.42" rx="15.21"/><path class="cls-2" d="M24.34,15.58A8.19,8.19,0,0,0,8,15.43c0,.12,0,.24,0,.36A8.07,8.07,0,0,0,9.13,20L7.66,24.34l4.53-1.44a8.19,8.19,0,0,0,12.15-7.11Zm-8.19,7a6.92,6.92,0,0,1-3.79-1.13l-2.64.84.86-2.54a6.71,6.71,0,0,1-1.32-4c0-.23,0-.45,0-.67A6.89,6.89,0,0,1,23,15.25c0,.18,0,.35,0,.54A6.87,6.87,0,0,1,16.15,22.62Z" transform="translate(-0.79 -0.79)"/><path class="cls-2" d="M19.91,17.43c-.21-.1-1.19-.59-1.38-.65s-.32-.1-.45.1a9.24,9.24,0,0,1-.64.78c-.12.13-.23.15-.43.05a5.53,5.53,0,0,1-1.62-1,5.94,5.94,0,0,1-1.11-1.38.29.29,0,0,1,.08-.41c.1-.09.2-.23.31-.34a.86.86,0,0,1,.07-.1,1.73,1.73,0,0,0,.13-.24.36.36,0,0,0,0-.35c0-.1-.45-1.08-.62-1.48s-.33-.33-.45-.33l-.39,0a.73.73,0,0,0-.53.25,2.21,2.21,0,0,0-.7,1.67,2.6,2.6,0,0,0,.1.68A4.38,4.38,0,0,0,13,16.05a8.26,8.26,0,0,0,3.42,3c2.05.79,2.05.53,2.42.49a2,2,0,0,0,1.35-.95,1.62,1.62,0,0,0,.12-.94C20.24,17.58,20.11,17.53,19.91,17.43Z" transform="translate(-0.79 -0.79)"/></svg>